# xmcd
#
# Track frame offsets: 
#        150
#        21138
#        30990
#        41360
#        51170
#        61053
#        72373
#        84480
#        94998
#        107650
#        119435
#        132318
#        159405
#        172415
#        184910
#        198223
#        209778
#        222708
#        236000
#        248173
#
# Disc length: 3476 seconds
#
# Revision: 3
# Processed by: cddbd v1.5.2PL0 Copyright (c) Steve Scherf et al.
# Submitted via: ExactAudioCopyFreeDBPlugin 1.0
#
DISCID=270d9214
DTITLE=The Isley Brothers - The Isley Brothers Story [Rhino Records]
DYEAR=1991
DGENRE=Rhythm and Blues
TTITLE0=Shout - Pts. 1 and 2
TTITLE1=Respectable
TTITLE2=Rock Around the Clock
TTITLE3=Open Up Your Heart
TTITLE4=Your Old Lady
TTITLE5=Twist and Shout
TTITLE6=Twistin' with Linda
TTITLE7=Nobody But Me
TTITLE8=She's Gone
TTITLE9=You'll Never Leave Him
TTITLE10=Who's That Lady
TTITLE11=Testify - Pts. 1 and 2
TTITLE12=The Last Girl
TTITLE13=Move Over and Let Me Dance
TTITLE14=This Old Heart of Mine (Is Weak for You)
TTITLE15=Take Some Time Out for Love
TTITLE16=I Guess I'll Always Love You
TTITLE17=Got to Have You Back
TTITLE18=Take Me in Your Arms (Rock Me a Little While)
TTITLE19=Behind a Painted Smile
EXTD=
EXTT0=
EXTT1=
EXTT2=
EXTT3=
EXTT4=
EXTT5=
EXTT6=
EXTT7=
EXTT8=
EXTT9=
EXTT10=
EXTT11=
EXTT12=
EXTT13=
EXTT14=
EXTT15=
EXTT16=
EXTT17=
EXTT18=
EXTT19=
PLAYORDER=
